<svg id="svg" version="1.1" xmlns="http://www.w3.org/2000/svg" xmlns:xlink="http://www.w3.org/1999/xlink" width="400" height="400" viewBox="0, 0, 400,400"><g id="svgg"><path id="path0" d="M199.400 94.258 C 191.260 100.746,183.547 106.852,182.260 107.827 C 180.974 108.802,180.029 109.623,180.160 109.650 C 180.292 109.678,180.535 109.729,180.700 109.764 C 180.865 109.799,181.450 110.077,182.000 110.382 C 182.550 110.686,183.046 110.903,183.102 110.864 C 183.282 110.738,189.727 114.043,192.174 115.518 L 194.548 116.948 203.974 117.027 C 216.898 117.136,228.769 118.350,236.675 120.371 L 239.551 121.106 261.315 103.853 L 283.079 86.600 280.839 86.322 C 266.790 84.575,229.926 82.316,217.400 82.433 L 214.200 82.463 199.400 94.258 M217.302 141.212 C 213.544 143.090,211.497 146.334,211.545 150.336 C 211.559 151.529,211.656 152.589,211.760 152.693 C 211.967 152.900,226.128 141.742,226.316 141.224 C 226.473 140.791,223.220 140.000,221.287 140.000 C 220.351 140.000,218.757 140.485,217.302 141.212 M129.600 147.000 C 127.961 148.650,126.710 150.000,126.820 150.000 C 126.930 150.000,128.361 148.650,130.000 147.000 C 131.639 145.350,132.890 144.000,132.780 144.000 C 132.670 144.000,131.239 145.350,129.600 147.000 M123.983 152.900 C 123.240 153.835,122.948 154.346,123.335 154.036 C 124.063 153.451,125.777 151.200,125.494 151.200 C 125.406 151.200,124.726 151.965,123.983 152.900 M120.799 156.500 C 120.210 157.304,120.113 157.584,120.545 157.233 C 121.201 156.700,122.193 155.200,121.889 155.200 C 121.813 155.200,121.322 155.785,120.799 156.500 M101.400 171.976 C 86.794 183.609,83.290 186.226,82.816 185.856 C 82.494 185.605,82.617 185.940,83.088 186.600 C 84.150 188.089,92.723 196.627,92.908 196.380 C 92.983 196.281,94.098 194.400,95.388 192.200 C 98.571 186.770,103.585 179.176,107.749 173.477 C 109.647 170.879,111.200 168.684,111.200 168.599 C 111.200 168.514,111.829 167.760,112.598 166.922 C 113.367 166.085,113.997 165.273,113.998 165.117 C 113.999 164.962,114.718 164.062,115.595 163.117 C 116.472 162.173,117.192 161.292,117.195 161.159 C 117.198 161.027,117.740 160.354,118.400 159.663 C 119.374 158.644,119.977 157.523,119.500 157.620 C 119.445 157.631,111.300 164.092,101.400 171.976 " stroke="none" fill="#2aa6fc" fill-rule="evenodd"></path><path id="path1" d="M359.943 103.555 C 358.288 104.173,293.734 155.816,294.243 156.114 C 302.501 160.949,301.412 166.599,289.894 178.684 C 287.397 181.304,283.529 185.799,281.298 188.674 C 274.506 197.424,273.436 197.979,257.049 201.243 C 206.592 211.294,180.944 235.123,173.141 279.200 C 171.784 286.866,171.502 327.055,172.770 332.070 C 180.208 361.484,222.069 361.809,230.077 332.515 C 230.872 329.604,230.946 328.076,231.204 309.200 C 231.526 285.574,231.767 283.981,236.402 274.795 C 240.180 267.308,234.475 273.380,310.588 195.838 C 343.801 162.001,372.010 133.030,373.274 131.458 C 382.233 120.311,380.187 113.478,365.539 105.635 C 363.922 104.770,362.240 104.003,361.800 103.931 C 361.360 103.859,360.910 103.690,360.800 103.555 C 360.690 103.420,360.305 103.420,359.943 103.555 " stroke="none" fill="#425bf7" fill-rule="evenodd"></path><path id="path2" d="M174.400 82.675 C 172.530 82.737,167.400 82.983,163.000 83.222 C 158.600 83.461,154.010 83.650,152.800 83.643 C 151.390 83.635,150.871 83.741,151.355 83.940 C 151.966 84.190,143.064 91.414,104.672 121.824 C 78.582 142.491,57.227 159.615,57.217 159.877 C 57.208 160.139,63.026 166.249,70.147 173.453 L 83.093 186.553 85.247 184.833 C 101.130 172.147,119.353 157.809,119.550 157.842 C 119.687 157.865,120.160 157.408,120.600 156.825 C 121.040 156.242,121.760 155.389,122.200 154.929 C 122.640 154.469,124.620 152.336,126.600 150.189 C 132.827 143.438,144.177 134.159,151.489 129.841 C 154.725 127.930,154.768 127.884,154.993 126.053 C 156.759 111.731,164.172 105.438,175.852 108.346 C 176.980 108.627,178.150 108.894,178.452 108.940 C 178.753 108.985,179.210 109.154,179.466 109.314 C 179.731 109.480,180.765 108.970,181.866 108.131 C 186.403 104.672,214.000 82.715,214.000 82.565 C 214.000 82.390,180.171 82.484,174.400 82.675 " stroke="none" fill="#24befc" fill-rule="evenodd"></path><path id="path3" d="M261.513 103.686 C 249.501 113.209,239.725 121.053,239.788 121.118 C 239.850 121.182,240.413 121.328,241.038 121.441 C 241.664 121.555,242.361 121.787,242.588 121.958 C 242.814 122.129,244.080 122.689,245.400 123.202 C 255.359 127.073,264.928 133.366,276.815 143.864 C 284.082 150.281,286.083 151.917,288.603 153.501 C 291.288 155.187,295.200 157.143,295.200 156.799 C 295.200 156.647,294.860 156.360,294.445 156.161 C 293.742 155.825,357.839 104.331,359.903 103.574 C 362.191 102.734,341.237 96.271,325.719 93.030 C 314.930 90.777,293.709 87.480,287.083 87.028 C 285.717 86.935,284.319 86.749,283.976 86.616 C 283.553 86.451,276.334 91.936,261.513 103.686 M226.348 141.131 C 226.267 141.362,222.955 144.128,218.989 147.276 C 210.720 153.839,211.365 152.973,212.733 155.667 C 217.688 165.421,232.520 161.596,232.545 150.557 C 232.553 146.905,229.176 141.015,227.393 141.573 C 227.226 141.625,226.956 141.453,226.793 141.189 C 226.601 140.878,226.445 140.857,226.348 141.131 M200.575 226.100 L 199.400 227.400 200.700 226.225 C 201.912 225.130,202.184 224.800,201.875 224.800 C 201.806 224.800,201.221 225.385,200.575 226.100 M193.978 232.700 L 192.600 234.200 194.100 232.822 C 195.496 231.538,195.784 231.200,195.478 231.200 C 195.412 231.200,194.737 231.875,193.978 232.700 M187.287 241.300 C 185.827 243.456,185.512 244.000,185.720 244.000 C 185.812 244.000,186.544 243.010,187.347 241.800 C 188.151 240.590,188.725 239.600,188.623 239.600 C 188.522 239.600,187.920 240.365,187.287 241.300 M180.672 253.019 C 179.732 254.989,179.864 255.324,180.847 253.462 C 181.293 252.616,181.587 251.854,181.501 251.767 C 181.414 251.681,181.041 252.244,180.672 253.019 M175.829 265.829 C 175.681 266.415,175.638 266.972,175.732 267.066 C 175.827 267.160,176.024 266.758,176.171 266.171 C 176.319 265.585,176.362 265.028,176.268 264.934 C 176.173 264.840,175.976 265.242,175.829 265.829 M172.093 286.000 C 172.093 286.770,172.175 287.085,172.276 286.700 C 172.376 286.315,172.376 285.685,172.276 285.300 C 172.175 284.915,172.093 285.230,172.093 286.000 M171.785 309.200 C 171.785 319.650,171.836 323.925,171.900 318.700 C 171.963 313.475,171.963 304.925,171.900 299.700 C 171.836 294.475,171.785 298.750,171.785 309.200 M180.200 346.000 C 181.059 346.880,181.852 347.600,181.962 347.600 C 182.072 347.600,181.459 346.880,180.600 346.000 C 179.741 345.120,178.948 344.400,178.838 344.400 C 178.728 344.400,179.341 345.120,180.200 346.000 M182.873 348.226 C 183.243 348.652,184.143 349.341,184.873 349.757 C 186.439 350.650,186.026 350.207,183.800 348.604 C 182.869 347.934,182.482 347.776,182.873 348.226 M200.705 354.683 C 201.202 354.779,201.922 354.775,202.305 354.675 C 202.687 354.575,202.280 354.496,201.400 354.501 C 200.520 354.505,200.207 354.587,200.705 354.683 " stroke="none" fill="#3783fb" fill-rule="evenodd"></path><path id="path4" d="M138.800 84.679 C 95.629 88.055,58.370 95.470,39.699 104.402 C 22.893 112.441,20.002 119.688,29.062 131.061 C 32.165 134.956,56.871 160.127,57.160 159.688 C 57.292 159.487,78.370 142.714,104.000 122.413 C 129.630 102.112,150.960 85.153,151.400 84.724 C 152.345 83.804,150.089 83.796,138.800 84.679 " stroke="none" fill="#19d2fc" fill-rule="evenodd"></path></g></svg>