<svg id="svg" xmlns="http://www.w3.org/2000/svg" xmlns:xlink="http://www.w3.org/1999/xlink" width="400" height="400" viewBox="0, 0, 400,400"><g id="svgg"><path id="path0" d="M172.200 85.999 C 103.347 88.607,50.804 99.026,35.599 113.086 C 29.780 118.468,29.797 123.327,35.665 131.101 C 37.507 133.542,95.131 192.776,95.991 193.113 C 96.151 193.176,97.558 191.092,99.118 188.483 C 114.455 162.832,133.300 141.941,150.916 131.059 L 154.706 128.718 154.976 126.259 C 156.968 108.139,169.033 104.846,189.600 116.810 L 192.200 118.322 203.000 118.534 C 234.290 119.146,247.148 124.031,269.936 143.967 C 278.333 151.313,280.161 152.696,284.000 154.608 C 294.190 159.683,293.838 164.074,282.259 176.306 C 279.705 179.004,276.191 183.056,274.450 185.311 C 267.802 193.923,266.206 194.798,252.061 197.589 C 201.772 207.510,176.567 231.803,171.122 275.600 C 170.227 282.799,170.391 318.261,171.335 321.600 C 178.926 348.461,215.957 349.560,225.256 323.200 C 226.147 320.677,226.181 320.041,226.436 301.600 C 226.757 278.294,227.429 274.432,232.796 265.053 C 235.784 259.831,237.102 258.443,298.301 196.089 C 367.442 125.644,363.680 129.703,365.461 123.631 C 370.698 105.773,318.139 90.838,234.400 86.388 C 224.002 85.836,183.242 85.581,172.200 85.999 M214.651 140.563 C 204.156 144.470,206.831 159.982,218.000 159.982 C 230.908 159.982,231.494 140.962,218.612 140.140 C 217.127 140.045,215.605 140.208,214.651 140.563 " stroke="none" fill="#000000" fill-rule="evenodd"></path></g></svg>